<?xml version="1.0" standalone="no"?>
<!DOCTYPE svg PUBLIC "-//W3C//DTD SVG 20010904//EN"
 "http://www.w3.org/TR/2001/REC-SVG-20010904/DTD/svg10.dtd">
<svg version="1.0" xmlns="http://www.w3.org/2000/svg"
 width="260.000000pt" height="260.000000pt" viewBox="0 0 260.000000 260.000000"
 preserveAspectRatio="xMidYMid meet">
<metadata>
Created by potrace 1.14, written by Peter Selinger 2001-2017
</metadata>
<g transform="translate(0.000000,260.000000) scale(0.100000,-0.100000)"
fill="#000000" stroke="none">
<path d="M2170 2127 c0 -25 5 -37 18 -40 15 -4 15 -5 0 -6 -13 -1 -17 -10 -16
-43 0 -24 0 -396 -1 -827 l-1 -784 -865 5 -865 6 0 -219 0 -219 1055 0 c912 0
1055 2 1055 14 0 8 -4 17 -9 20 -4 3 -6 18 -3 32 3 18 1 25 -6 20 -10 -6 -9
27 3 87 2 9 0 15 -5 12 -11 -7 -20 20 -13 44 4 16 1 21 -13 22 -19 0 -19 1 0
8 17 6 17 9 3 23 -12 11 -13 18 -4 27 8 8 8 11 0 11 -6 0 -14 7 -17 16 -3 8
-2 12 4 9 6 -3 10 1 10 9 0 9 -4 16 -8 16 -4 0 -7 12 -6 28 0 15 -6 33 -15 40
-14 10 -13 11 4 5 18 -6 18 -5 6 10 -8 10 -11 20 -8 23 3 4 -3 28 -13 54 -14
36 -16 50 -7 54 8 3 8 5 -2 5 -10 1 -11 4 -2 15 9 11 9 16 0 22 -8 5 -9 3 -4
-6 5 -8 4 -11 -2 -7 -6 4 -8 18 -6 31 3 14 -2 39 -10 56 -9 16 -11 28 -6 25 5
-4 9 6 9 20 0 16 -4 24 -10 20 -12 -8 -9 32 3 52 5 8 3 11 -5 8 -8 -3 -14 4
-14 20 -1 14 2 22 8 19 6 -4 6 1 -1 13 -6 11 -8 23 -5 25 2 3 -1 18 -7 34 -7
16 -13 31 -13 34 -1 3 -5 11 -10 19 -7 11 -5 13 6 9 8 -4 15 0 15 8 0 7 -5 10
-10 7 -6 -4 -8 0 -4 10 3 10 2 17 -4 17 -6 0 -7 5 -4 10 4 6 3 16 -2 23 -10
12 -15 51 -15 99 0 15 -4 25 -9 22 -5 -3 -6 2 -2 11 3 10 0 21 -8 26 -8 5 -9
9 -2 9 13 0 6 37 -11 59 -8 11 -8 13 2 7 12 -7 17 6 6 17 -4 4 -8 21 -10 39
-4 51 -22 139 -32 151 -9 14 -8 43 4 71 6 15 4 17 -6 11 -10 -6 -12 -4 -7 8 3
10 2 17 -2 17 -5 0 -7 10 -3 22 3 13 1 19 -5 15 -6 -4 -8 3 -5 18 2 14 1 33
-3 42 -5 10 -7 21 -7 26 1 4 -3 7 -9 7 -8 0 -8 4 -2 13 6 6 8 21 6 32 -2 11
-5 26 -5 33 -1 6 -4 12 -7 12 -3 0 -7 11 -7 25 -1 14 2 22 7 19 5 -3 9 0 9 5
0 6 -6 11 -14 11 -10 0 -13 12 -11 45 1 28 -3 49 -11 56 -8 6 -11 16 -8 21 4
6 0 14 -7 19 -8 5 -9 9 -3 9 9 0 11 32 4 50 -2 3 -3 16 -4 29 -2 40 -26 38
-26 -2z"/>
</g>
</svg>
